<svg height="512" viewBox="0 0 512 512" width="512" xmlns="http://www.w3.org/2000/svg"><rect fill="#EAE6CF" height="512" rx="64" width="512"/><path d="m254.92444 336.92444c43.2889-.36 74.07112-22.01333 92.33334-64.95111h.95556v65.48889c0 4.88-.32 12.44889-.95556 22.73333-1.30222 10.64445-4.78222 22.10223-10.42666 34.36889-5.65778 11.54667-14.79112 21.38667-27.37778 29.49778-12.44889 8.84-29.81778 13.44-52.12001 13.80444-21.48444 0-39.65333-5.59555-54.52444-16.77777-15.2-11.00889-24.08001-28.87111-26.65778-53.58667h-18.89778c1.93778 32.11111 12.18667 55.02667 30.76444 68.74222 18.08889 13.16445 41.04001 19.75556 68.83556 19.75556 27.45778 0 48.87112-5.14223 64.21778-15.43111 15.18223-9.92 26.08445-22.28445 32.71556-37.08 6.62222-14.79111 10.58222-28.86667 11.86667-42.21334.98222-13.35555 1.45778-22.91555 1.45778-28.68889v-270.088875h-18.90667v59.537775h-.95556c-7.27555-21.82667-19.30666-38.333335-36.12-49.524445-16.96-11.00445-35.70222-16.51111-56.21333-16.51111-35.72001.72444-62.85779 14.52444-81.43112 41.40889-19.07111 26.697775-28.59556 59.631105-28.59556 98.782195 0 40.23557 9.04445 73.52001 27.13334 99.86224 18.27555 26.88889 45.89778 40.51111 82.90222 40.87111zm-68.34222-224.89777c14.85333-24.359995 37.63111-36.986665 68.34222-37.888885 31.50223.90666 54.83556 13.17333 70.03556 36.808885 15.18223 23.64 22.77778 52.05331 22.77778 85.25331s-7.59555 61.43112-22.77778 84.70668c-15.2 24.72444-38.53333 37.34667-70.03556 37.88889-29.72889-.54667-52.36-12.81778-67.86222-36.80889-15.67556-23.27556-23.50667-51.87112-23.50667-85.79112-.004-31.75556 7.67111-59.81332 23.02667-84.16887z" fill="#743901"/></svg>
